<svg width="98" height="96" viewBox="0 0 98 96" fill="none" xmlns="http://www.w3.org/2000/svg">
<g filter="url(#filter0_f_0_14)">
<path fill-rule="evenodd" clip-rule="evenodd" d="M45.0548 11.052C51.0745 11.5136 56.6855 13.0787 62.4253 14.9465C69.1843 17.1459 77.1059 17.6497 81.7737 23.0007C86.545 28.4703 88.7638 36.4931 87.4423 43.6249C86.1613 50.5387 79.9546 55.2593 74.8906 60.148C70.9885 63.9149 65.4347 65.1279 61.4059 68.7597C56.2726 73.387 54.6359 81.8119 48.1618 84.2426C41.5856 86.7117 34.0528 84.2922 27.6355 81.4391C20.9996 78.4888 13.9946 74.4582 11.1495 67.7872C8.34653 61.2148 12.6228 53.9306 12.8588 46.791C13.0734 40.2957 10.2762 33.7475 12.4768 27.6307C14.79 21.201 19.2401 15.2064 25.3384 12.103C31.3036 9.06738 38.379 10.5402 45.0548 11.052Z" fill="url(#paint0_linear_0_14)"/>
</g>
<defs>
<filter id="filter0_f_0_14" x="0.200623" y="0.242676" width="97.6183" height="95.0232" filterUnits="userSpaceOnUse" color-interpolation-filters="sRGB">
<feFlood flood-opacity="0" result="BackgroundImageFix"/>
<feBlend mode="normal" in="SourceGraphic" in2="BackgroundImageFix" result="shape"/>
<feGaussianBlur stdDeviation="5" result="effect1_foregroundBlur_0_14"/>
</filter>
<linearGradient id="paint0_linear_0_14" x1="47.253" y1="9.6662" x2="50.4482" y2="84.9348" gradientUnits="userSpaceOnUse">
<stop stop-color="#18888D"/>
<stop offset="0.53125" stop-color="#0F965C"/>
</linearGradient>
</defs>
</svg>
