<svg width="41" height="47" viewBox="0 0 41 47" fill="none" xmlns="http://www.w3.org/2000/svg">
<path d="M7.41871 14.7082L8.54096 13.4003C9.7927 11.9689 11.8645 11.9689 13.1594 13.499L13.2026 13.573C14.2601 14.8069 15.6629 15.3992 17.1952 15.572C19.2886 15.7941 21.3173 17.0773 22.6554 19.3971C24.1229 22.0623 24.1014 25.616 22.5691 28.2566C21.9911 29.3016 21.2139 30.1837 20.2956 30.8367C19.3774 31.4896 18.3418 31.8967 17.2665 32.0272C16.1912 32.1578 15.104 32.0085 14.0863 31.5906C13.0686 31.1726 12.1467 30.4969 11.3897 29.6139C10.1812 28.2566 9.49055 26.5044 9.3179 24.6782C9.14525 22.8767 8.51938 21.1739 7.41871 19.9153C6.16697 18.5087 6.16697 16.1396 7.41871 14.7082ZM16.483 34.5495C13.958 34.5495 11.6056 33.439 9.85744 31.3907C8.34672 29.6139 7.39713 27.3928 7.15973 24.9744C7.09498 24.234 6.90075 23.2716 6.38279 22.3831C5.08789 24.4314 4.31094 26.8993 4.31094 29.6139C4.31094 33.6611 6.03748 37.2394 8.69203 39.4851H36.6835V37.0173C36.6835 28.1332 31.5255 20.6063 24.4683 18.1385C26.389 21.5934 26.3459 26.2083 24.3819 29.6139C22.6554 32.6986 19.6771 34.5495 16.483 34.5495ZM27.576 13.7211H30.3169C32.1945 13.7211 33.8347 15.2265 33.8347 17.9164V19.7426H36.5324V17.2747C36.5324 13.573 33.6621 10.7597 30.3169 10.7597H27.576C25.7847 10.7597 24.2524 8.73609 24.2524 6.66312C24.2524 4.59015 25.7847 3.0601 27.576 3.0601V0C24.2524 0 21.5763 3.0601 21.5763 6.86054C21.5763 10.661 24.2524 13.7211 27.576 13.7211ZM5.39003 13.6964C5.51952 13.4496 5.69217 13.2028 5.88641 12.9561L7.00866 11.6728C7.20289 11.4507 7.41871 11.2779 7.63453 11.1052L4.59151 7.57621C4.89365 6.9099 4.78574 6.04616 4.31094 5.47856C4.00189 5.13456 3.58762 4.94207 3.15632 4.94207C2.72502 4.94207 2.31076 5.13456 2.0017 5.47856C1.69956 5.82406 1.54849 6.24359 1.52691 6.6878C1.13843 6.71247 0.771546 6.88522 0.469402 7.23072C-0.156467 7.94638 -0.156467 9.13094 0.469402 9.87128C0.965781 10.4142 1.69956 10.5376 2.30385 10.1921L5.39003 13.6964ZM35.367 5.89809C36.4677 4.6395 37.1583 2.93671 37.1583 1.03649H34.4606C34.4606 3.08478 32.9499 4.81225 31.1586 4.81225V7.87235C35.1728 7.87235 38.3237 11.6234 38.3237 16.2136V22.2104H40.9998V16.2136C41.0106 14.0609 40.4871 11.9489 39.49 10.123C38.4929 8.297 37.0632 6.83198 35.367 5.89809ZM6.46911 46.8886H36.6835C39.0791 46.8886 40.9998 44.6922 40.9998 41.953H2.15277C2.15277 43.262 2.60753 44.5174 3.417 45.443C4.22647 46.3686 5.32435 46.8886 6.46911 46.8886Z" fill="#F9A221"/>
</svg>
