<svg width="56" height="56" viewBox="0 0 56 56" fill="none" xmlns="http://www.w3.org/2000/svg">
<path d="M40.8333 6.41666C40.8333 5.95253 40.649 5.50741 40.3208 5.17922C39.9926 4.85103 39.5475 4.66666 39.0833 4.66666C38.6192 4.66666 38.1741 4.85103 37.8459 5.17922C37.5177 5.50741 37.3333 5.95253 37.3333 6.41666V15.785C32.606 12.6163 25.977 13.7293 22.6497 18.62L5.49033 43.834C4.193 45.7427 4.44033 48.2907 6.08533 49.9193C6.89818 50.7188 7.96435 51.2098 9.10024 51.3077C10.2361 51.4057 11.3706 51.1045 12.3083 50.456L37.485 33.0283C39.7414 31.4781 41.2951 29.1002 41.8084 26.4111C42.3218 23.7221 41.7534 20.9391 40.2267 18.6667H49.581C50.0451 18.6667 50.4902 18.4823 50.8184 18.1541C51.1466 17.8259 51.331 17.3808 51.331 16.9167C51.331 16.4525 51.1466 16.0074 50.8184 15.6792C50.4902 15.351 50.0451 15.1667 49.581 15.1667H43.3043L50.8177 7.65332C51.1268 7.32158 51.2951 6.88281 51.2871 6.42944C51.2791 5.97607 51.0954 5.5435 50.7748 5.22287C50.4542 4.90224 50.0216 4.71858 49.5682 4.71058C49.1148 4.70258 48.6761 4.87087 48.3443 5.17999L40.8333 12.691V6.41666Z" fill="#F9A221"/>
</svg>
