<svg width="46" height="55" viewBox="0 0 46 55" fill="none" xmlns="http://www.w3.org/2000/svg">
<path d="M10.2224 40.4479C10.2224 42.037 9.0724 43.3371 7.66681 43.3371C6.26123 43.3371 5.11121 42.037 5.11121 40.4479C5.11121 38.8589 6.26123 37.5587 7.66681 37.5587C9.0724 37.5587 10.2224 38.8589 10.2224 40.4479ZM15.3336 40.4479C13.928 40.4479 12.778 41.7481 12.778 43.3371C12.778 44.9262 13.928 46.2263 15.3336 46.2263C16.7392 46.2263 17.8892 44.9262 17.8892 43.3371C17.8892 41.7481 16.7392 40.4479 15.3336 40.4479ZM2.5556 46.2263C1.15002 46.2263 0 47.5265 0 49.1156C0 50.7046 1.15002 52.0048 2.5556 52.0048C3.96119 52.0048 5.11121 50.7046 5.11121 49.1156C5.11121 47.5265 3.96119 46.2263 2.5556 46.2263ZM10.2224 49.1156C8.81684 49.1156 7.66681 50.4157 7.66681 52.0048C7.66681 53.5938 8.81684 54.894 10.2224 54.894C11.628 54.894 12.778 53.5938 12.778 52.0048C12.778 50.4157 11.628 49.1156 10.2224 49.1156ZM31.5106 2.07923L17.3781 22.1014L26.425 32.3292L44.1609 16.3808C46.4609 14.185 46.6398 10.2268 44.4931 7.79986L39.1008 1.70363C36.954 -0.723304 33.4529 -0.521059 31.5106 2.07923ZM13.7747 30.3357L19.167 36.403C20.1893 37.5587 21.8249 37.5587 22.8216 36.403L24.6105 34.3806L15.5892 24.1528L13.7747 26.2041C13.2956 26.7553 13.0271 27.4971 13.0271 28.2699C13.0271 29.0427 13.2956 29.7846 13.7747 30.3357Z" fill="#F9A221"/>
</svg>
